name rise31.4854peak64.571fall78.6902.mot
datacolumns 19
datarows 17
range 6.18997700000000 6.21664000000000
endheader
time	ground_force1_vx	ground_force1_vy	ground_force1_vz	ground_force1_px	ground_force1_py	ground_force1_pz	ground_force2_vx	ground_force2_vy	ground_force2_vz	ground_force2_px	ground_force2_py	ground_force2_pz	ground_torque1_x	ground_torque1_y	ground_torque1_z	ground_torque2_x	ground_torque2_y	ground_torque2_z	
6.18997700000000	-5.40050000000000	41.73272600000000	-10.80071100000000	0.30967800000000	0.00000000000000	0.07362600000000	-44.63640500000000	771.03903200000002	-49.82267600000000	0.12904000000000	0.00000000000000	-0.09686600000000	0.00000000000000	-7.58864000000000	0.00000000000000	0.00000000000000	-20.33177400000000	0.00000000000000	
6.19164700000000	-5.83354300000000	48.93487600000000	-12.18830400000000	0.31638400000000	0.00000000000000	0.07456100000000	-45.20706900000000	768.28037500000005	-49.33097700000000	0.12838800000000	0.00000000000000	-0.09674000000000	0.00000000000000	-8.66767100000000	0.00000000000000	0.00000000000000	-20.26528900000000	0.00000000000000	
6.19330900000000	-6.13923000000000	56.23183600000000	-13.46461000000000	0.32237700000000	0.00000000000000	0.07541500000000	-45.79833200000000	765.42967299999998	-48.82240700000000	0.12773800000000	0.00000000000000	-0.09660900000000	0.00000000000000	-9.68440400000000	0.00000000000000	0.00000000000000	-20.20265700000000	0.00000000000000	
6.19497800000000	-6.30218900000000	63.52944300000000	-14.60111800000000	0.32777600000000	0.00000000000000	0.07619900000000	-46.40988900000000	762.48434499999996	-48.29686800000000	0.12709100000000	0.00000000000000	-0.09647400000000	0.00000000000000	-10.61607900000000	0.00000000000000	0.00000000000000	-20.14384400000000	0.00000000000000	
6.19664400000000	-6.31368900000000	70.75617000000000	-15.57860000000000	0.33267200000000	0.00000000000000	0.07692400000000	-47.04132200000000	759.44169899999997	-47.75427100000000	0.12644600000000	0.00000000000000	-0.09633500000000	0.00000000000000	-11.44650100000000	0.00000000000000	0.00000000000000	-20.08878900000000	0.00000000000000	
6.19830900000000	-6.17146700000000	77.86535700000000	-16.38728800000000	0.33714200000000	0.00000000000000	0.07759700000000	-47.69209700000000	756.29893300000003	-47.19453800000000	0.12580500000000	0.00000000000000	-0.09619100000000	0.00000000000000	-12.16633900000000	0.00000000000000	0.00000000000000	-20.03740100000000	0.00000000000000	
6.19998300000000	-5.87905800000000	84.83501900000000	-17.02624500000000	0.34124600000000	0.00000000000000	0.07822600000000	-48.36156300000000	753.05314899999996	-46.61760300000000	0.12516900000000	0.00000000000000	-0.09604200000000	0.00000000000000	-12.77282500000000	0.00000000000000	0.00000000000000	-19.98956400000000	0.00000000000000	
6.20164700000000	-5.44477100000000	91.66566700000000	-17.50211900000000	0.34503400000000	0.00000000000000	0.07881600000000	-49.04895200000000	749.70135600000003	-46.02341400000000	0.12453700000000	0.00000000000000	-0.09589000000000	0.00000000000000	-13.26895500000000	0.00000000000000	0.00000000000000	-19.94513000000000	0.00000000000000	
6.20331200000000	-4.88044300000000	98.37664100000001	-17.82749600000000	0.34855000000000	0.00000000000000	0.07937200000000	-49.75337700000000	746.24049000000002	-45.41193800000000	0.12391000000000	0.00000000000000	-0.09573200000000	0.00000000000000	-13.66235800000000	0.00000000000000	0.00000000000000	-19.90392300000000	0.00000000000000	
6.20497900000000	-4.20012300000000	105.00154600000000	-18.01904800000000	0.35182700000000	0.00000000000000	0.07989600000000	-50.47383000000000	742.66741200000001	-44.78315800000000	0.12328900000000	0.00000000000000	-0.09557000000000	0.00000000000000	-13.96397800000000	0.00000000000000	0.00000000000000	-19.86574300000000	0.00000000000000	
6.20664400000000	-3.41880700000000	111.58330500000000	-18.09567300000000	0.35489400000000	0.00000000000000	0.08039400000000	-51.20918600000000	738.97893199999999	-44.13708200000000	0.12267400000000	0.00000000000000	-0.09540300000000	0.00000000000000	-14.18671700000000	0.00000000000000	0.00000000000000	-19.83035700000000	0.00000000000000	
6.20830900000000	-2.55130800000000	118.16931000000000	-18.07677700000000	0.35777700000000	0.00000000000000	0.08086600000000	-51.95820200000000	735.17181100000005	-43.47374000000000	0.12206700000000	0.00000000000000	-0.09523200000000	0.00000000000000	-14.34414800000000	0.00000000000000	0.00000000000000	-19.79750700000000	0.00000000000000	
6.20998000000000	-1.61134200000000	124.80703300000000	-17.98080900000000	0.36049600000000	0.00000000000000	0.08131600000000	-52.71951700000000	731.24278200000003	-42.79318700000000	0.12146800000000	0.00000000000000	-0.09505600000000	0.00000000000000	-14.44940400000000	0.00000000000000	0.00000000000000	-19.76691100000000	0.00000000000000	
6.21164700000000	-0.61085200000000	131.54036700000000	-17.82412800000000	0.36307000000000	0.00000000000000	0.08174500000000	-53.49165500000000	727.18856000000005	-42.09551000000000	0.12087800000000	0.00000000000000	-0.09487600000000	0.00000000000000	-14.51428600000000	0.00000000000000	0.00000000000000	-19.73825700000000	0.00000000000000	
6.21331400000000	0.44041300000000	138.40685900000000	-17.62021600000000	0.36551200000000	0.00000000000000	0.08215600000000	-54.27302900000000	723.00585999999998	-41.38082300000000	0.12029700000000	0.00000000000000	-0.09469000000000	0.00000000000000	-14.54863100000000	0.00000000000000	0.00000000000000	-19.71121200000000	0.00000000000000	
6.21497600000000	1.53507600000000	145.43587099999999	-17.37926100000000	0.36783700000000	0.00000000000000	0.08254900000000	-55.06193900000000	718.69140700000003	-40.64927500000000	0.11972700000000	0.00000000000000	-0.09450000000000	0.00000000000000	-14.55994400000000	0.00000000000000	0.00000000000000	-19.68541500000000	0.00000000000000	
6.21664000000000	2.66809800000000	152.64765800000001	-17.10804900000000	0.37005400000000	0.00000000000000	0.08292700000000	-55.85658300000000	714.24196300000006	-39.90105100000000	0.11916800000000	0.00000000000000	-0.09430500000000	0.00000000000000	-14.55326900000000	0.00000000000000	0.00000000000000	-19.66048600000000	0.00000000000000	
